<svg width="335" height="25" viewBox="0 0 335 25" fill="none" xmlns="http://www.w3.org/2000/svg">
<rect width="335" height="25" fill="#F5F5F5"/>
<g clip-path="url(#clip0_0_1)">
<rect width="375" height="845" transform="translate(-20 -201)" fill="white"/>
<path d="M3 12.5049H332.002" stroke="#D8D0EE" stroke-width="5" stroke-linecap="round"/>
<path d="M3 12.5049H332.002" stroke="#5AD192" stroke-width="5" stroke-linecap="round"/>
<circle cx="12.5" cy="12.5" r="12.5" fill="#6251A3"/>
<circle cx="322.5" cy="12.5" r="12.5" fill="#6251A3"/>
<path d="M9.414 11.571C9.25533 11.6957 9.08533 11.7127 8.904 11.622C8.734 11.5313 8.649 11.384 8.649 11.18V9.939C8.649 9.293 8.90967 8.783 9.431 8.409L11.148 7.151C11.658 6.777 12.2417 6.59 12.899 6.59H13.97C14.2307 6.59 14.4573 6.68633 14.65 6.879C14.8427 7.07167 14.939 7.29833 14.939 7.559V18.031C14.939 18.2917 14.8427 18.5183 14.65 18.711C14.4573 18.9037 14.2307 19 13.97 19H12.899C12.6383 19 12.4117 18.9037 12.219 18.711C12.0263 18.5183 11.93 18.2917 11.93 18.031V9.769H11.913H11.896L9.414 11.571Z" fill="white"/>
<path d="M319.295 19C319.034 19 318.808 18.9037 318.615 18.711C318.422 18.5183 318.326 18.2917 318.326 18.031V17.64C318.326 17.0053 318.581 16.4897 319.091 16.093C320.995 14.597 322.253 13.458 322.865 12.676C323.488 11.894 323.8 11.129 323.8 10.381C323.8 9.33833 323.222 8.817 322.066 8.817C321.363 8.817 320.502 9.00967 319.482 9.395C319.267 9.47433 319.063 9.45167 318.87 9.327C318.677 9.20233 318.581 9.02667 318.581 8.8V8.086C318.581 7.79133 318.666 7.53067 318.836 7.304C319.006 7.066 319.233 6.90733 319.516 6.828C320.547 6.556 321.539 6.42 322.491 6.42C323.862 6.42 324.916 6.74867 325.653 7.406C326.401 8.052 326.775 8.953 326.775 10.109C326.775 11.1063 326.458 12.0583 325.823 12.965C325.2 13.8603 323.976 15.0787 322.151 16.62C322.14 16.6313 322.134 16.6427 322.134 16.654C322.134 16.6653 322.14 16.671 322.151 16.671H325.874C326.135 16.671 326.356 16.7673 326.537 16.96C326.73 17.1527 326.826 17.3793 326.826 17.64V18.031C326.826 18.2917 326.73 18.5183 326.537 18.711C326.356 18.9037 326.135 19 325.874 19H319.295Z" fill="white"/>
</g>
<defs>
<clipPath id="clip0_0_1">
<rect width="375" height="845" fill="white" transform="translate(-20 -201)"/>
</clipPath>
</defs>
</svg>
