<svg width="296" height="176" viewBox="0 0 296 176" fill="none" xmlns="http://www.w3.org/2000/svg">
<rect width="296" height="176" rx="8" fill="#D8D0EE"/>
<g clip-path="url(#clip0_1246_6602)">
<path d="M149.871 50.918C148.56 49.6973 146.43 49.6973 145.119 50.918L131.69 63.418C130.379 64.6387 130.379 66.6211 131.69 67.8418C133.001 69.0625 135.131 69.0625 136.442 67.8418L144.143 60.6738V81.25C144.143 82.9785 145.643 84.375 147.5 84.375C149.357 84.375 150.857 82.9785 150.857 81.25V60.6738L158.558 67.8418C159.869 69.0625 161.999 69.0625 163.31 67.8418C164.621 66.6211 164.621 64.6387 163.31 63.418L149.881 50.918H149.871ZM130.714 84.375C130.714 82.6465 129.214 81.25 127.357 81.25C125.5 81.25 124 82.6465 124 84.375V90.625C124 95.8008 128.511 100 134.071 100H160.929C166.489 100 171 95.8008 171 90.625V84.375C171 82.6465 169.5 81.25 167.643 81.25C165.786 81.25 164.286 82.6465 164.286 84.375V90.625C164.286 92.3535 162.785 93.75 160.929 93.75H134.071C132.215 93.75 130.714 92.3535 130.714 90.625V84.375Z" fill="#6251A3"/>
</g>
<path d="M117.104 117.94C117.104 120.06 116.064 121.12 113.984 121.12C111.904 121.12 110.864 120.06 110.864 117.94V112.912C110.864 112.728 110.928 112.572 111.056 112.444C111.192 112.308 111.352 112.24 111.536 112.24C111.72 112.24 111.876 112.308 112.004 112.444C112.14 112.572 112.208 112.728 112.208 112.912V118C112.208 118.704 112.352 119.216 112.64 119.536C112.936 119.856 113.392 120.016 114.008 120.016C114.624 120.016 115.076 119.856 115.364 119.536C115.66 119.216 115.808 118.704 115.808 118V112.888C115.808 112.712 115.872 112.56 116 112.432C116.128 112.304 116.28 112.24 116.456 112.24C116.632 112.24 116.784 112.304 116.912 112.432C117.04 112.56 117.104 112.712 117.104 112.888V117.94ZM120.093 116.98V118.78C120.093 119.148 120.245 119.472 120.549 119.752C120.861 120.024 121.229 120.16 121.653 120.16C122.133 120.16 122.513 119.968 122.793 119.584C123.073 119.2 123.213 118.632 123.213 117.88C123.213 116.36 122.693 115.6 121.653 115.6C121.229 115.6 120.861 115.74 120.549 116.02C120.245 116.292 120.093 116.612 120.093 116.98ZM119.901 123.46C119.781 123.58 119.633 123.64 119.457 123.64C119.281 123.64 119.133 123.58 119.013 123.46C118.893 123.34 118.833 123.192 118.833 123.016V115.348C118.833 115.188 118.889 115.052 119.001 114.94C119.121 114.82 119.261 114.76 119.421 114.76C119.581 114.76 119.721 114.82 119.841 114.94C119.961 115.052 120.025 115.188 120.033 115.348V115.528C120.033 115.536 120.037 115.54 120.045 115.54C120.053 115.54 120.061 115.536 120.069 115.528C120.365 115.2 120.657 114.972 120.945 114.844C121.233 114.708 121.569 114.64 121.953 114.64C122.713 114.64 123.321 114.924 123.777 115.492C124.241 116.06 124.473 116.856 124.473 117.88C124.473 118.872 124.233 119.66 123.753 120.244C123.281 120.828 122.681 121.12 121.953 121.12C121.241 121.12 120.633 120.864 120.129 120.352C120.121 120.344 120.113 120.34 120.105 120.34C120.097 120.34 120.093 120.344 120.093 120.352V123.016C120.093 123.192 120.029 123.34 119.901 123.46ZM127.377 120.808C127.249 120.936 127.097 121 126.921 121C126.745 121 126.589 120.936 126.453 120.808C126.325 120.68 126.261 120.524 126.261 120.34V112.66C126.261 112.476 126.325 112.32 126.453 112.192C126.589 112.064 126.745 112 126.921 112C127.097 112 127.249 112.064 127.377 112.192C127.513 112.32 127.581 112.476 127.581 112.66V120.34C127.581 120.524 127.513 120.68 127.377 120.808ZM133.907 117.88C133.907 116.36 133.355 115.6 132.251 115.6C131.147 115.6 130.595 116.36 130.595 117.88C130.595 119.4 131.147 120.16 132.251 120.16C133.355 120.16 133.907 119.4 133.907 117.88ZM134.411 120.28C133.891 120.84 133.171 121.12 132.251 121.12C131.331 121.12 130.611 120.84 130.091 120.28C129.571 119.712 129.311 118.912 129.311 117.88C129.311 116.848 129.571 116.052 130.091 115.492C130.611 114.924 131.331 114.64 132.251 114.64C133.171 114.64 133.891 114.924 134.411 115.492C134.931 116.052 135.191 116.848 135.191 117.88C135.191 118.912 134.931 119.712 134.411 120.28ZM139.445 117.856C138.789 117.856 138.293 117.968 137.957 118.192C137.629 118.408 137.465 118.704 137.465 119.08C137.465 119.376 137.553 119.62 137.729 119.812C137.905 120.004 138.117 120.1 138.365 120.1C138.893 120.1 139.313 119.936 139.625 119.608C139.945 119.272 140.105 118.816 140.105 118.24V117.952C140.105 117.888 140.069 117.856 139.997 117.856H139.445ZM138.065 121.12C137.521 121.12 137.073 120.944 136.721 120.592C136.377 120.24 136.205 119.776 136.205 119.2C136.205 118.496 136.473 117.952 137.009 117.568C137.545 117.176 138.357 116.98 139.445 116.98H139.997C140.069 116.98 140.105 116.944 140.105 116.872V116.74C140.105 116.316 140.005 116.02 139.805 115.852C139.605 115.684 139.245 115.6 138.725 115.6C138.261 115.6 137.709 115.696 137.069 115.888C136.949 115.928 136.833 115.912 136.721 115.84C136.617 115.76 136.565 115.656 136.565 115.528C136.565 115.368 136.613 115.224 136.709 115.096C136.805 114.968 136.929 114.888 137.081 114.856C137.657 114.712 138.205 114.64 138.725 114.64C139.733 114.64 140.425 114.82 140.801 115.18C141.177 115.54 141.365 116.2 141.365 117.16V120.412C141.365 120.572 141.305 120.712 141.185 120.832C141.073 120.944 140.937 121 140.777 121C140.617 121 140.477 120.944 140.357 120.832C140.245 120.712 140.185 120.572 140.177 120.412L140.165 120.112C140.165 120.104 140.161 120.1 140.153 120.1C140.137 120.1 140.129 120.104 140.129 120.112C139.665 120.784 138.977 121.12 138.065 121.12ZM145.492 115.6C144.452 115.6 143.932 116.36 143.932 117.88C143.932 118.648 144.068 119.22 144.34 119.596C144.62 119.972 145.004 120.16 145.492 120.16C145.916 120.16 146.28 120.02 146.584 119.74C146.896 119.46 147.052 119.14 147.052 118.78V116.98C147.052 116.62 146.896 116.3 146.584 116.02C146.28 115.74 145.916 115.6 145.492 115.6ZM145.192 121.12C144.464 121.12 143.86 120.828 143.38 120.244C142.908 119.66 142.672 118.872 142.672 117.88C142.672 116.856 142.9 116.06 143.356 115.492C143.82 114.924 144.432 114.64 145.192 114.64C145.904 114.64 146.512 114.896 147.016 115.408C147.024 115.416 147.032 115.42 147.04 115.42C147.048 115.42 147.052 115.416 147.052 115.408V112.624C147.052 112.448 147.112 112.3 147.232 112.18C147.36 112.06 147.512 112 147.688 112C147.864 112 148.012 112.06 148.132 112.18C148.252 112.3 148.312 112.448 148.312 112.624V120.412C148.312 120.572 148.252 120.712 148.132 120.832C148.02 120.944 147.884 121 147.724 121C147.564 121 147.424 120.944 147.304 120.832C147.192 120.712 147.132 120.572 147.124 120.412L147.112 120.232C147.112 120.224 147.108 120.22 147.1 120.22C147.092 120.22 147.084 120.224 147.076 120.232C146.78 120.56 146.488 120.792 146.2 120.928C145.912 121.056 145.576 121.12 145.192 121.12ZM154.687 116.98V118.78C154.687 119.148 154.839 119.472 155.143 119.752C155.455 120.024 155.823 120.16 156.247 120.16C156.727 120.16 157.107 119.968 157.387 119.584C157.667 119.2 157.807 118.632 157.807 117.88C157.807 116.36 157.287 115.6 156.247 115.6C155.823 115.6 155.455 115.74 155.143 116.02C154.839 116.292 154.687 116.612 154.687 116.98ZM154.495 123.46C154.375 123.58 154.227 123.64 154.051 123.64C153.875 123.64 153.727 123.58 153.607 123.46C153.487 123.34 153.427 123.192 153.427 123.016V115.348C153.427 115.188 153.483 115.052 153.595 114.94C153.715 114.82 153.855 114.76 154.015 114.76C154.175 114.76 154.315 114.82 154.435 114.94C154.555 115.052 154.619 115.188 154.627 115.348V115.528C154.627 115.536 154.631 115.54 154.639 115.54C154.647 115.54 154.655 115.536 154.663 115.528C154.959 115.2 155.251 114.972 155.539 114.844C155.827 114.708 156.163 114.64 156.547 114.64C157.307 114.64 157.915 114.924 158.371 115.492C158.835 116.06 159.067 116.856 159.067 117.88C159.067 118.872 158.827 119.66 158.347 120.244C157.875 120.828 157.275 121.12 156.547 121.12C155.835 121.12 155.227 120.864 154.723 120.352C154.715 120.344 154.707 120.34 154.699 120.34C154.691 120.34 154.687 120.344 154.687 120.352V123.016C154.687 123.192 154.623 123.34 154.495 123.46ZM161.562 120.82C161.442 120.94 161.294 121 161.118 121C160.942 121 160.794 120.94 160.674 120.82C160.554 120.7 160.494 120.552 160.494 120.376V112.624C160.494 112.448 160.554 112.3 160.674 112.18C160.794 112.06 160.942 112 161.118 112C161.294 112 161.442 112.06 161.562 112.18C161.69 112.3 161.754 112.448 161.754 112.624V115.528C161.754 115.536 161.758 115.54 161.766 115.54C161.774 115.54 161.782 115.536 161.79 115.528C162.35 114.936 162.978 114.64 163.674 114.64C164.402 114.64 164.934 114.844 165.27 115.252C165.606 115.652 165.774 116.328 165.774 117.28V120.388C165.774 120.556 165.714 120.7 165.594 120.82C165.474 120.94 165.33 121 165.162 121C164.994 121 164.85 120.94 164.73 120.82C164.61 120.7 164.55 120.556 164.55 120.388V117.52C164.55 116.776 164.462 116.28 164.286 116.032C164.11 115.784 163.786 115.66 163.314 115.66C162.946 115.66 162.594 115.836 162.258 116.188C161.922 116.532 161.754 116.896 161.754 117.28V120.376C161.754 120.552 161.69 120.7 161.562 120.82ZM171.618 117.88C171.618 116.36 171.066 115.6 169.962 115.6C168.858 115.6 168.306 116.36 168.306 117.88C168.306 119.4 168.858 120.16 169.962 120.16C171.066 120.16 171.618 119.4 171.618 117.88ZM172.122 120.28C171.602 120.84 170.882 121.12 169.962 121.12C169.042 121.12 168.322 120.84 167.802 120.28C167.282 119.712 167.022 118.912 167.022 117.88C167.022 116.848 167.282 116.052 167.802 115.492C168.322 114.924 169.042 114.64 169.962 114.64C170.882 114.64 171.602 114.924 172.122 115.492C172.642 116.052 172.902 116.848 172.902 117.88C172.902 118.912 172.642 119.712 172.122 120.28ZM174.278 115.96C174.142 115.96 174.026 115.912 173.93 115.816C173.842 115.72 173.798 115.608 173.798 115.48C173.798 115.352 173.842 115.24 173.93 115.144C174.026 115.048 174.142 115 174.278 115H174.95C175.022 115 175.058 114.964 175.058 114.892V113.344C175.058 113.168 175.118 113.02 175.238 112.9C175.358 112.78 175.506 112.72 175.682 112.72C175.858 112.72 176.006 112.78 176.126 112.9C176.254 113.02 176.318 113.168 176.318 113.344V114.892C176.318 114.964 176.354 115 176.426 115H177.998C178.134 115 178.246 115.048 178.334 115.144C178.43 115.24 178.478 115.352 178.478 115.48C178.478 115.608 178.43 115.72 178.334 115.816C178.246 115.912 178.134 115.96 177.998 115.96H176.426C176.354 115.96 176.318 115.996 176.318 116.068V118.84C176.318 119.384 176.382 119.74 176.51 119.908C176.638 120.076 176.894 120.16 177.278 120.16C177.462 120.16 177.638 120.148 177.806 120.124C177.934 120.108 178.046 120.136 178.142 120.208C178.246 120.28 178.298 120.376 178.298 120.496C178.298 120.64 178.25 120.768 178.154 120.88C178.058 120.992 177.938 121.056 177.794 121.072C177.458 121.104 177.206 121.12 177.038 121.12C176.302 121.12 175.786 120.964 175.49 120.652C175.202 120.34 175.058 119.776 175.058 118.96V116.068C175.058 115.996 175.022 115.96 174.95 115.96H174.278ZM184.263 117.88C184.263 116.36 183.711 115.6 182.607 115.6C181.503 115.6 180.951 116.36 180.951 117.88C180.951 119.4 181.503 120.16 182.607 120.16C183.711 120.16 184.263 119.4 184.263 117.88ZM184.767 120.28C184.247 120.84 183.527 121.12 182.607 121.12C181.687 121.12 180.967 120.84 180.447 120.28C179.927 119.712 179.667 118.912 179.667 117.88C179.667 116.848 179.927 116.052 180.447 115.492C180.967 114.924 181.687 114.64 182.607 114.64C183.527 114.64 184.247 114.924 184.767 115.492C185.287 116.052 185.547 116.848 185.547 117.88C185.547 118.912 185.287 119.712 184.767 120.28Z" fill="#6251A3"/>
<defs>
<clipPath id="clip0_1246_6602">
<rect width="47" height="50" fill="white" transform="translate(124 50)"/>
</clipPath>
</defs>
</svg>
