<svg width="296" height="63" viewBox="0 0 296 63" fill="none" xmlns="http://www.w3.org/2000/svg">
<rect width="296" height="63" rx="8" fill="white"/>
<g clip-path="url(#clip0_1447_6037)">
<path d="M30.2656 14.6423C29.2891 13.7878 27.7031 13.7878 26.7266 14.6423L16.7266 23.3923C15.75 24.2468 15.75 25.6345 16.7266 26.489C17.7031 27.3435 19.2891 27.3435 20.2656 26.489L26 21.4714V35.8748C26 37.0847 27.1172 38.0623 28.5 38.0623C29.8828 38.0623 31 37.0847 31 35.8748V21.4714L36.7344 26.489C37.7109 27.3435 39.2969 27.3435 40.2734 26.489C41.25 25.6345 41.25 24.2468 40.2734 23.3923L30.2734 14.6423H30.2656ZM16 38.0623C16 36.8523 14.8828 35.8748 13.5 35.8748C12.1172 35.8748 11 36.8523 11 38.0623V42.4373C11 46.0603 14.3594 48.9998 18.5 48.9998H38.5C42.6406 48.9998 46 46.0603 46 42.4373V38.0623C46 36.8523 44.8828 35.8748 43.5 35.8748C42.1172 35.8748 41 36.8523 41 38.0623V42.4373C41 43.6472 39.8828 44.6248 38.5 44.6248H18.5C17.1172 44.6248 16 43.6472 16 42.4373V38.0623Z" fill="#6251A3"/>
</g>
<path d="M73.288 37.01C72.508 37.79 71.38 38.18 69.904 38.18C68.428 38.18 67.3 37.79 66.52 37.01C65.74 36.218 65.35 35.048 65.35 33.5V25.598C65.35 25.394 65.422 25.22 65.566 25.076C65.71 24.932 65.878 24.86 66.07 24.86C66.274 24.86 66.448 24.932 66.592 25.076C66.736 25.22 66.808 25.394 66.808 25.598V33.554C66.808 34.718 67.06 35.576 67.564 36.128C68.08 36.68 68.866 36.956 69.922 36.956C70.978 36.956 71.764 36.68 72.28 36.128C72.796 35.576 73.054 34.718 73.054 33.554V25.562C73.054 25.358 73.12 25.19 73.252 25.058C73.396 24.926 73.564 24.86 73.756 24.86C73.948 24.86 74.11 24.926 74.242 25.058C74.386 25.19 74.458 25.358 74.458 25.562V33.5C74.458 35.048 74.068 36.218 73.288 37.01ZM79.4485 32.042V34.598C79.4485 35.282 79.7185 35.87 80.2585 36.362C80.7985 36.854 81.4285 37.1 82.1485 37.1C83.0005 37.1 83.6605 36.782 84.1285 36.146C84.6085 35.498 84.8485 34.556 84.8485 33.32C84.8485 30.8 83.9485 29.54 82.1485 29.54C81.4165 29.54 80.7805 29.792 80.2405 30.296C79.7125 30.788 79.4485 31.37 79.4485 32.042ZM79.2505 41.762C79.1185 41.894 78.9565 41.96 78.7645 41.96C78.5725 41.96 78.4045 41.894 78.2605 41.762C78.1285 41.63 78.0625 41.468 78.0625 41.276V29.288C78.0625 29.108 78.1225 28.958 78.2425 28.838C78.3745 28.706 78.5305 28.64 78.7105 28.64C78.8905 28.64 79.0465 28.706 79.1785 28.838C79.3105 28.958 79.3765 29.108 79.3765 29.288L79.3945 29.972C79.3945 29.984 79.4005 29.99 79.4125 29.99L79.4485 29.954C80.2405 28.958 81.2425 28.46 82.4545 28.46C83.6185 28.46 84.5365 28.886 85.2085 29.738C85.8925 30.578 86.2345 31.772 86.2345 33.32C86.2345 34.82 85.8805 36.008 85.1725 36.884C84.4765 37.748 83.5705 38.18 82.4545 38.18C81.2305 38.18 80.2465 37.718 79.5025 36.794C79.4905 36.782 79.4785 36.776 79.4665 36.776C79.4545 36.776 79.4485 36.782 79.4485 36.794V41.276C79.4485 41.468 79.3825 41.63 79.2505 41.762ZM91.2424 37.784C91.1104 37.928 90.9424 38 90.7384 38C90.5344 38 90.3604 37.928 90.2164 37.784C90.0844 37.64 90.0184 37.472 90.0184 37.28V25.22C90.0184 25.028 90.0844 24.86 90.2164 24.716C90.3604 24.572 90.5344 24.5 90.7384 24.5C90.9424 24.5 91.1104 24.572 91.2424 24.716C91.3864 24.86 91.4584 25.028 91.4584 25.22V37.28C91.4584 37.472 91.3864 37.64 91.2424 37.784ZM102.305 33.32C102.305 30.8 101.345 29.54 99.4247 29.54C97.5047 29.54 96.5447 30.8 96.5447 33.32C96.5447 35.84 97.5047 37.1 99.4247 37.1C101.345 37.1 102.305 35.84 102.305 33.32ZM102.575 36.902C101.819 37.754 100.769 38.18 99.4247 38.18C98.0807 38.18 97.0307 37.754 96.2747 36.902C95.5187 36.05 95.1407 34.856 95.1407 33.32C95.1407 31.784 95.5187 30.59 96.2747 29.738C97.0307 28.886 98.0807 28.46 99.4247 28.46C100.769 28.46 101.819 28.886 102.575 29.738C103.331 30.59 103.709 31.784 103.709 33.32C103.709 34.856 103.331 36.05 102.575 36.902ZM111.209 33.05C110.021 33.05 109.121 33.242 108.509 33.626C107.909 34.01 107.609 34.55 107.609 35.246C107.609 35.786 107.759 36.224 108.059 36.56C108.371 36.884 108.779 37.046 109.283 37.046C110.147 37.046 110.861 36.758 111.425 36.182C112.001 35.606 112.289 34.844 112.289 33.896V33.212C112.289 33.104 112.235 33.05 112.127 33.05H111.209ZM108.995 38.18C108.179 38.18 107.513 37.922 106.997 37.406C106.481 36.89 106.223 36.206 106.223 35.354C106.223 34.358 106.619 33.56 107.411 32.96C108.203 32.36 109.469 32.06 111.209 32.06H112.127C112.235 32.06 112.289 32.012 112.289 31.916V31.574C112.289 30.842 112.121 30.332 111.785 30.044C111.449 29.744 110.855 29.594 110.003 29.594C109.175 29.594 108.281 29.75 107.321 30.062C107.177 30.11 107.045 30.092 106.925 30.008C106.805 29.924 106.745 29.804 106.745 29.648C106.745 29.228 106.943 28.958 107.339 28.838C108.227 28.586 109.115 28.46 110.003 28.46C111.383 28.46 112.337 28.712 112.865 29.216C113.405 29.72 113.675 30.626 113.675 31.934V37.352C113.675 37.532 113.609 37.688 113.477 37.82C113.357 37.94 113.207 38 113.027 38C112.847 38 112.691 37.94 112.559 37.82C112.427 37.688 112.361 37.532 112.361 37.352L112.343 36.416C112.343 36.404 112.337 36.398 112.325 36.398C112.301 36.398 112.289 36.41 112.289 36.434C111.581 37.598 110.483 38.18 108.995 38.18ZM120.716 29.54C118.916 29.54 118.016 30.8 118.016 33.32C118.016 34.568 118.25 35.51 118.718 36.146C119.198 36.782 119.864 37.1 120.716 37.1C121.412 37.1 122.036 36.86 122.588 36.38C123.14 35.888 123.416 35.33 123.416 34.706V31.934C123.416 31.322 123.14 30.77 122.588 30.278C122.048 29.786 121.424 29.54 120.716 29.54ZM120.428 38.18C119.312 38.18 118.4 37.748 117.692 36.884C116.996 36.008 116.648 34.82 116.648 33.32C116.648 31.772 116.984 30.578 117.656 29.738C118.34 28.886 119.264 28.46 120.428 28.46C121.604 28.46 122.582 28.922 123.362 29.846C123.374 29.858 123.386 29.864 123.398 29.864C123.41 29.864 123.416 29.858 123.416 29.846V25.184C123.416 24.992 123.482 24.83 123.614 24.698C123.758 24.566 123.926 24.5 124.118 24.5C124.31 24.5 124.472 24.566 124.604 24.698C124.736 24.83 124.802 24.992 124.802 25.184V37.352C124.802 37.532 124.736 37.688 124.604 37.82C124.484 37.94 124.334 38 124.154 38C123.974 38 123.818 37.94 123.686 37.82C123.554 37.688 123.488 37.532 123.488 37.352V36.686C123.488 36.674 123.482 36.668 123.47 36.668C123.458 36.668 123.446 36.674 123.434 36.686C122.63 37.682 121.628 38.18 120.428 38.18ZM135.632 32.042V34.598C135.632 35.282 135.902 35.87 136.442 36.362C136.982 36.854 137.612 37.1 138.332 37.1C139.184 37.1 139.844 36.782 140.312 36.146C140.792 35.498 141.032 34.556 141.032 33.32C141.032 30.8 140.132 29.54 138.332 29.54C137.6 29.54 136.964 29.792 136.424 30.296C135.896 30.788 135.632 31.37 135.632 32.042ZM135.434 41.762C135.302 41.894 135.14 41.96 134.948 41.96C134.756 41.96 134.588 41.894 134.444 41.762C134.312 41.63 134.246 41.468 134.246 41.276V29.288C134.246 29.108 134.306 28.958 134.426 28.838C134.558 28.706 134.714 28.64 134.894 28.64C135.074 28.64 135.23 28.706 135.362 28.838C135.494 28.958 135.56 29.108 135.56 29.288L135.578 29.972C135.578 29.984 135.584 29.99 135.596 29.99L135.632 29.954C136.424 28.958 137.426 28.46 138.638 28.46C139.802 28.46 140.72 28.886 141.392 29.738C142.076 30.578 142.418 31.772 142.418 33.32C142.418 34.82 142.064 36.008 141.356 36.884C140.66 37.748 139.754 38.18 138.638 38.18C137.414 38.18 136.43 37.718 135.686 36.794C135.674 36.782 135.662 36.776 135.65 36.776C135.638 36.776 135.632 36.782 135.632 36.794V41.276C135.632 41.468 135.566 41.63 135.434 41.762ZM146.76 37.802C146.628 37.934 146.466 38 146.274 38C146.082 38 145.914 37.934 145.77 37.802C145.638 37.67 145.572 37.508 145.572 37.316V25.184C145.572 24.992 145.638 24.83 145.77 24.698C145.914 24.566 146.082 24.5 146.274 24.5C146.466 24.5 146.628 24.566 146.76 24.698C146.892 24.83 146.958 24.992 146.958 25.184V30.044C146.958 30.056 146.964 30.062 146.976 30.062C146.988 30.062 147 30.056 147.012 30.044C147.876 28.988 148.878 28.46 150.018 28.46C151.11 28.46 151.902 28.766 152.394 29.378C152.886 29.978 153.132 30.992 153.132 32.42V37.316C153.132 37.508 153.066 37.67 152.934 37.802C152.814 37.934 152.658 38 152.466 38C152.274 38 152.112 37.934 151.98 37.802C151.848 37.67 151.782 37.508 151.782 37.316V32.654C151.782 31.442 151.62 30.632 151.296 30.224C150.984 29.804 150.438 29.594 149.658 29.594C149.034 29.594 148.428 29.894 147.84 30.494C147.252 31.082 146.958 31.688 146.958 32.312V37.316C146.958 37.508 146.892 37.67 146.76 37.802ZM163.181 33.32C163.181 30.8 162.221 29.54 160.301 29.54C158.381 29.54 157.421 30.8 157.421 33.32C157.421 35.84 158.381 37.1 160.301 37.1C162.221 37.1 163.181 35.84 163.181 33.32ZM163.451 36.902C162.695 37.754 161.645 38.18 160.301 38.18C158.957 38.18 157.907 37.754 157.151 36.902C156.395 36.05 156.017 34.856 156.017 33.32C156.017 31.784 156.395 30.59 157.151 29.738C157.907 28.886 158.957 28.46 160.301 28.46C161.645 28.46 162.695 28.886 163.451 29.738C164.207 30.59 164.585 31.784 164.585 33.32C164.585 34.856 164.207 36.05 163.451 36.902ZM167.463 30.08C167.307 30.08 167.175 30.032 167.067 29.936C166.971 29.828 166.923 29.696 166.923 29.54C166.923 29.384 166.971 29.258 167.067 29.162C167.175 29.054 167.307 29 167.463 29H168.777C168.885 29 168.939 28.946 168.939 28.838V26.264C168.939 26.072 169.005 25.91 169.137 25.778C169.269 25.646 169.431 25.58 169.623 25.58C169.815 25.58 169.977 25.646 170.109 25.778C170.241 25.91 170.307 26.072 170.307 26.264V28.838C170.307 28.946 170.361 29 170.469 29H173.169C173.325 29 173.451 29.054 173.547 29.162C173.655 29.258 173.709 29.384 173.709 29.54C173.709 29.696 173.655 29.828 173.547 29.936C173.451 30.032 173.325 30.08 173.169 30.08H170.469C170.361 30.08 170.307 30.134 170.307 30.242V34.994C170.307 35.858 170.421 36.428 170.649 36.704C170.877 36.968 171.315 37.1 171.963 37.1C172.347 37.1 172.665 37.07 172.917 37.01C173.049 36.986 173.169 37.016 173.277 37.1C173.397 37.172 173.457 37.274 173.457 37.406C173.457 37.574 173.403 37.724 173.295 37.856C173.199 37.988 173.073 38.066 172.917 38.09C172.605 38.15 172.209 38.18 171.729 38.18C170.673 38.18 169.941 37.964 169.533 37.532C169.137 37.088 168.939 36.284 168.939 35.12V30.242C168.939 30.134 168.885 30.08 168.777 30.08H167.463ZM183.667 33.32C183.667 30.8 182.707 29.54 180.787 29.54C178.867 29.54 177.907 30.8 177.907 33.32C177.907 35.84 178.867 37.1 180.787 37.1C182.707 37.1 183.667 35.84 183.667 33.32ZM183.937 36.902C183.181 37.754 182.131 38.18 180.787 38.18C179.443 38.18 178.393 37.754 177.637 36.902C176.881 36.05 176.503 34.856 176.503 33.32C176.503 31.784 176.881 30.59 177.637 29.738C178.393 28.886 179.443 28.46 180.787 28.46C182.131 28.46 183.181 28.886 183.937 29.738C184.693 30.59 185.071 31.784 185.071 33.32C185.071 34.856 184.693 36.05 183.937 36.902Z" fill="#6251A3"/>
<defs>
<clipPath id="clip0_1447_6037">
<rect width="35" height="35" fill="white" transform="translate(11 14)"/>
</clipPath>
</defs>
</svg>
