<svg width="282" height="96" viewBox="0 0 282 96" fill="none" xmlns="http://www.w3.org/2000/svg">
<rect width="282" height="96" rx="4" fill="#D8D0EE"/>
<g clip-path="url(#clip0_2304_9976)">
<path d="M142.413 18.5874C141.631 17.8062 140.363 17.8062 139.581 18.5874L131.581 26.5874C130.8 27.3687 130.8 28.6374 131.581 29.4187C132.363 30.1999 133.631 30.1999 134.412 29.4187L139 24.8312V37.9999C139 39.1062 139.894 39.9999 141 39.9999C142.106 39.9999 143 39.1062 143 37.9999V24.8312L147.587 29.4187C148.369 30.1999 149.638 30.1999 150.419 29.4187C151.2 28.6374 151.2 27.3687 150.419 26.5874L142.419 18.5874H142.413ZM131 39.9999C131 38.8937 130.106 37.9999 129 37.9999C127.894 37.9999 127 38.8937 127 39.9999V43.9999C127 47.3124 129.688 49.9999 133 49.9999H149C152.312 49.9999 155 47.3124 155 43.9999V39.9999C155 38.8937 154.106 37.9999 153 37.9999C151.894 37.9999 151 38.8937 151 39.9999V43.9999C151 45.1062 150.106 45.9999 149 45.9999H133C131.894 45.9999 131 45.1062 131 43.9999V39.9999Z" fill="#6251A3"/>
</g>
<path d="M98.192 73.34C97.672 73.86 96.92 74.12 95.936 74.12C94.952 74.12 94.2 73.86 93.68 73.34C93.16 72.812 92.9 72.032 92.9 71V65.732C92.9 65.596 92.948 65.48 93.044 65.384C93.14 65.288 93.252 65.24 93.38 65.24C93.516 65.24 93.632 65.288 93.728 65.384C93.824 65.48 93.872 65.596 93.872 65.732V71.036C93.872 71.812 94.04 72.384 94.376 72.752C94.72 73.12 95.244 73.304 95.948 73.304C96.652 73.304 97.176 73.12 97.52 72.752C97.864 72.384 98.036 71.812 98.036 71.036V65.708C98.036 65.572 98.08 65.46 98.168 65.372C98.264 65.284 98.376 65.24 98.504 65.24C98.632 65.24 98.74 65.284 98.828 65.372C98.924 65.46 98.972 65.572 98.972 65.708V71C98.972 72.032 98.712 72.812 98.192 73.34ZM101.699 70.028V71.732C101.699 72.188 101.879 72.58 102.239 72.908C102.599 73.236 103.019 73.4 103.499 73.4C104.067 73.4 104.507 73.188 104.819 72.764C105.139 72.332 105.299 71.704 105.299 70.88C105.299 69.2 104.699 68.36 103.499 68.36C103.011 68.36 102.587 68.528 102.227 68.864C101.875 69.192 101.699 69.58 101.699 70.028ZM101.567 76.508C101.479 76.596 101.371 76.64 101.243 76.64C101.115 76.64 101.003 76.596 100.907 76.508C100.819 76.42 100.775 76.312 100.775 76.184V68.192C100.775 68.072 100.815 67.972 100.895 67.892C100.983 67.804 101.087 67.76 101.207 67.76C101.327 67.76 101.431 67.804 101.519 67.892C101.607 67.972 101.651 68.072 101.651 68.192L101.663 68.648C101.663 68.656 101.667 68.66 101.675 68.66L101.699 68.636C102.227 67.972 102.895 67.64 103.703 67.64C104.479 67.64 105.091 67.924 105.539 68.492C105.995 69.052 106.223 69.848 106.223 70.88C106.223 71.88 105.987 72.672 105.515 73.256C105.051 73.832 104.447 74.12 103.703 74.12C102.887 74.12 102.231 73.812 101.735 73.196C101.727 73.188 101.719 73.184 101.711 73.184C101.703 73.184 101.699 73.188 101.699 73.196V76.184C101.699 76.312 101.655 76.42 101.567 76.508ZM108.962 73.856C108.874 73.952 108.762 74 108.626 74C108.49 74 108.374 73.952 108.278 73.856C108.19 73.76 108.146 73.648 108.146 73.52V65.48C108.146 65.352 108.19 65.24 108.278 65.144C108.374 65.048 108.49 65 108.626 65C108.762 65 108.874 65.048 108.962 65.144C109.058 65.24 109.106 65.352 109.106 65.48V73.52C109.106 73.648 109.058 73.76 108.962 73.856ZM115.736 70.88C115.736 69.2 115.096 68.36 113.816 68.36C112.536 68.36 111.896 69.2 111.896 70.88C111.896 72.56 112.536 73.4 113.816 73.4C115.096 73.4 115.736 72.56 115.736 70.88ZM115.916 73.268C115.412 73.836 114.712 74.12 113.816 74.12C112.92 74.12 112.22 73.836 111.716 73.268C111.212 72.7 110.96 71.904 110.96 70.88C110.96 69.856 111.212 69.06 111.716 68.492C112.22 67.924 112.92 67.64 113.816 67.64C114.712 67.64 115.412 67.924 115.916 68.492C116.42 69.06 116.672 69.856 116.672 70.88C116.672 71.904 116.42 72.7 115.916 73.268ZM121.072 70.7C120.28 70.7 119.68 70.828 119.272 71.084C118.872 71.34 118.672 71.7 118.672 72.164C118.672 72.524 118.772 72.816 118.972 73.04C119.18 73.256 119.452 73.364 119.788 73.364C120.364 73.364 120.84 73.172 121.216 72.788C121.6 72.404 121.792 71.896 121.792 71.264V70.808C121.792 70.736 121.756 70.7 121.684 70.7H121.072ZM119.596 74.12C119.052 74.12 118.608 73.948 118.264 73.604C117.92 73.26 117.748 72.804 117.748 72.236C117.748 71.572 118.012 71.04 118.54 70.64C119.068 70.24 119.912 70.04 121.072 70.04H121.684C121.756 70.04 121.792 70.008 121.792 69.944V69.716C121.792 69.228 121.68 68.888 121.456 68.696C121.232 68.496 120.836 68.396 120.268 68.396C119.716 68.396 119.12 68.5 118.48 68.708C118.384 68.74 118.296 68.728 118.216 68.672C118.136 68.616 118.096 68.536 118.096 68.432C118.096 68.152 118.228 67.972 118.492 67.892C119.084 67.724 119.676 67.64 120.268 67.64C121.188 67.64 121.824 67.808 122.176 68.144C122.536 68.48 122.716 69.084 122.716 69.956V73.568C122.716 73.688 122.672 73.792 122.584 73.88C122.504 73.96 122.404 74 122.284 74C122.164 74 122.06 73.96 121.972 73.88C121.884 73.792 121.84 73.688 121.84 73.568L121.828 72.944C121.828 72.936 121.824 72.932 121.816 72.932C121.8 72.932 121.792 72.94 121.792 72.956C121.32 73.732 120.588 74.12 119.596 74.12ZM126.811 68.36C125.611 68.36 125.011 69.2 125.011 70.88C125.011 71.712 125.167 72.34 125.479 72.764C125.799 73.188 126.243 73.4 126.811 73.4C127.275 73.4 127.691 73.24 128.059 72.92C128.427 72.592 128.611 72.22 128.611 71.804V69.956C128.611 69.548 128.427 69.18 128.059 68.852C127.699 68.524 127.283 68.36 126.811 68.36ZM126.619 74.12C125.875 74.12 125.267 73.832 124.795 73.256C124.331 72.672 124.099 71.88 124.099 70.88C124.099 69.848 124.323 69.052 124.771 68.492C125.227 67.924 125.843 67.64 126.619 67.64C127.403 67.64 128.055 67.948 128.575 68.564C128.583 68.572 128.591 68.576 128.599 68.576C128.607 68.576 128.611 68.572 128.611 68.564V65.456C128.611 65.328 128.655 65.22 128.743 65.132C128.839 65.044 128.951 65 129.079 65C129.207 65 129.315 65.044 129.403 65.132C129.491 65.22 129.535 65.328 129.535 65.456V73.568C129.535 73.688 129.491 73.792 129.403 73.88C129.323 73.96 129.223 74 129.103 74C128.983 74 128.879 73.96 128.791 73.88C128.703 73.792 128.659 73.688 128.659 73.568V73.124C128.659 73.116 128.655 73.112 128.647 73.112C128.639 73.112 128.631 73.116 128.623 73.124C128.087 73.788 127.419 74.12 126.619 74.12ZM136.982 68.36C135.782 68.36 135.182 69.2 135.182 70.88C135.182 71.712 135.338 72.34 135.65 72.764C135.97 73.188 136.414 73.4 136.982 73.4C137.446 73.4 137.862 73.24 138.23 72.92C138.598 72.592 138.782 72.22 138.782 71.804V69.956C138.782 69.548 138.598 69.18 138.23 68.852C137.87 68.524 137.454 68.36 136.982 68.36ZM136.79 74.12C136.046 74.12 135.438 73.832 134.966 73.256C134.502 72.672 134.27 71.88 134.27 70.88C134.27 69.848 134.494 69.052 134.942 68.492C135.398 67.924 136.014 67.64 136.79 67.64C137.574 67.64 138.226 67.948 138.746 68.564C138.754 68.572 138.762 68.576 138.77 68.576C138.778 68.576 138.782 68.572 138.782 68.564V65.456C138.782 65.328 138.826 65.22 138.914 65.132C139.01 65.044 139.122 65 139.25 65C139.378 65 139.486 65.044 139.574 65.132C139.662 65.22 139.706 65.328 139.706 65.456V73.568C139.706 73.688 139.662 73.792 139.574 73.88C139.494 73.96 139.394 74 139.274 74C139.154 74 139.05 73.96 138.962 73.88C138.874 73.792 138.83 73.688 138.83 73.568V73.124C138.83 73.116 138.826 73.112 138.818 73.112C138.81 73.112 138.802 73.116 138.794 73.124C138.258 73.788 137.59 74.12 136.79 74.12ZM145.924 70.88C145.924 69.2 145.284 68.36 144.004 68.36C142.724 68.36 142.084 69.2 142.084 70.88C142.084 72.56 142.724 73.4 144.004 73.4C145.284 73.4 145.924 72.56 145.924 70.88ZM146.104 73.268C145.6 73.836 144.9 74.12 144.004 74.12C143.108 74.12 142.408 73.836 141.904 73.268C141.4 72.7 141.148 71.904 141.148 70.88C141.148 69.856 141.4 69.06 141.904 68.492C142.408 67.924 143.108 67.64 144.004 67.64C144.9 67.64 145.6 67.924 146.104 68.492C146.608 69.06 146.86 69.856 146.86 70.88C146.86 71.904 146.608 72.7 146.104 73.268ZM150.873 74.12C149.929 74.12 149.201 73.848 148.689 73.304C148.185 72.752 147.933 71.944 147.933 70.88C147.933 69.824 148.177 69.02 148.665 68.468C149.161 67.916 149.857 67.64 150.753 67.64C151.169 67.64 151.609 67.684 152.073 67.772C152.185 67.796 152.277 67.856 152.349 67.952C152.429 68.04 152.469 68.144 152.469 68.264C152.469 68.36 152.425 68.436 152.337 68.492C152.257 68.548 152.169 68.564 152.073 68.54C151.665 68.436 151.245 68.384 150.813 68.384C149.533 68.384 148.893 69.216 148.893 70.88C148.893 71.744 149.061 72.376 149.397 72.776C149.733 73.176 150.245 73.376 150.933 73.376C151.381 73.376 151.789 73.316 152.157 73.196C152.245 73.164 152.329 73.176 152.409 73.232C152.489 73.288 152.529 73.364 152.529 73.46C152.529 73.58 152.493 73.688 152.421 73.784C152.349 73.88 152.253 73.944 152.133 73.976C151.757 74.072 151.337 74.12 150.873 74.12ZM156.227 74.12C155.531 74.12 155.019 73.928 154.691 73.544C154.371 73.16 154.211 72.524 154.211 71.636V68.216C154.211 68.088 154.251 67.98 154.331 67.892C154.419 67.804 154.527 67.76 154.655 67.76C154.783 67.76 154.891 67.804 154.979 67.892C155.067 67.98 155.111 68.088 155.111 68.216V71.516C155.111 72.236 155.219 72.732 155.435 73.004C155.651 73.268 155.995 73.4 156.467 73.4C156.899 73.4 157.307 73.216 157.691 72.848C158.075 72.472 158.267 72.064 158.267 71.624V68.216C158.267 68.088 158.311 67.98 158.399 67.892C158.495 67.804 158.607 67.76 158.735 67.76C158.863 67.76 158.971 67.804 159.059 67.892C159.147 67.98 159.191 68.088 159.191 68.216V73.568C159.191 73.688 159.147 73.792 159.059 73.88C158.979 73.96 158.879 74 158.759 74C158.639 74 158.535 73.96 158.447 73.88C158.359 73.792 158.315 73.688 158.315 73.568V73.076C158.315 73.068 158.311 73.064 158.303 73.064C158.295 73.064 158.287 73.068 158.279 73.076C157.727 73.772 157.043 74.12 156.227 74.12ZM161.778 73.868C161.69 73.956 161.582 74 161.454 74C161.326 74 161.214 73.956 161.118 73.868C161.03 73.78 160.986 73.672 160.986 73.544V68.204C160.986 68.084 161.03 67.98 161.118 67.892C161.206 67.804 161.31 67.76 161.43 67.76C161.55 67.76 161.654 67.804 161.742 67.892C161.83 67.98 161.874 68.084 161.874 68.204L161.886 68.6C161.886 68.608 161.89 68.612 161.898 68.612C161.914 68.612 161.922 68.604 161.922 68.588C162.378 67.956 162.922 67.64 163.554 67.64C163.938 67.64 164.246 67.724 164.478 67.892C164.718 68.06 164.914 68.34 165.066 68.732C165.066 68.748 165.07 68.756 165.078 68.756C165.094 68.756 165.102 68.748 165.102 68.732C165.55 68.004 166.134 67.64 166.854 67.64C167.494 67.64 167.954 67.824 168.234 68.192C168.522 68.56 168.666 69.176 168.666 70.04V73.544C168.666 73.672 168.622 73.78 168.534 73.868C168.454 73.956 168.35 74 168.222 74C168.094 74 167.986 73.956 167.898 73.868C167.81 73.78 167.766 73.672 167.766 73.544V70.28C167.766 69.536 167.678 69.032 167.502 68.768C167.334 68.496 167.034 68.36 166.602 68.36C166.306 68.36 166.014 68.52 165.726 68.84C165.438 69.152 165.294 69.476 165.294 69.812V73.544C165.294 73.672 165.25 73.78 165.162 73.868C165.074 73.956 164.966 74 164.838 74C164.71 74 164.602 73.956 164.514 73.868C164.426 73.78 164.382 73.672 164.382 73.544V70.28C164.382 69.536 164.294 69.032 164.118 68.768C163.95 68.496 163.654 68.36 163.23 68.36C162.934 68.36 162.638 68.52 162.342 68.84C162.054 69.152 161.91 69.476 161.91 69.812V73.544C161.91 73.672 161.866 73.78 161.778 73.868ZM172.748 68.336C171.636 68.336 171.028 68.996 170.924 70.316C170.924 70.38 170.96 70.412 171.032 70.412H174.26C174.324 70.412 174.356 70.38 174.356 70.316C174.308 68.996 173.772 68.336 172.748 68.336ZM173 74.12C172.016 74.12 171.268 73.852 170.756 73.316C170.244 72.772 169.988 71.96 169.988 70.88C169.988 69.768 170.232 68.952 170.72 68.432C171.216 67.904 171.892 67.64 172.748 67.64C174.324 67.64 175.16 68.572 175.256 70.436C175.264 70.628 175.196 70.792 175.052 70.928C174.916 71.056 174.752 71.12 174.56 71.12H171.008C170.944 71.12 170.912 71.156 170.912 71.228C170.984 72.692 171.708 73.424 173.084 73.424C173.54 73.424 174.008 73.34 174.488 73.172C174.576 73.14 174.66 73.152 174.74 73.208C174.82 73.256 174.86 73.328 174.86 73.424C174.86 73.696 174.736 73.864 174.488 73.928C173.976 74.056 173.48 74.12 173 74.12ZM177.481 73.868C177.393 73.956 177.285 74 177.157 74C177.029 74 176.921 73.956 176.833 73.868C176.745 73.78 176.701 73.672 176.701 73.544V68.192C176.701 68.072 176.741 67.972 176.821 67.892C176.909 67.804 177.013 67.76 177.133 67.76C177.253 67.76 177.357 67.804 177.445 67.892C177.533 67.972 177.577 68.072 177.577 68.192V68.684C177.577 68.692 177.581 68.696 177.589 68.696C177.597 68.696 177.605 68.692 177.613 68.684C178.189 67.988 178.873 67.64 179.665 67.64C180.393 67.64 180.921 67.844 181.249 68.252C181.577 68.66 181.741 69.336 181.741 70.28V73.544C181.741 73.672 181.697 73.78 181.609 73.868C181.529 73.956 181.425 74 181.297 74C181.169 74 181.061 73.956 180.973 73.868C180.885 73.78 180.841 73.672 180.841 73.544V70.4C180.841 69.608 180.733 69.072 180.517 68.792C180.301 68.504 179.937 68.36 179.425 68.36C179.009 68.36 178.605 68.556 178.213 68.948C177.821 69.332 177.625 69.728 177.625 70.136V73.544C177.625 73.672 177.577 73.78 177.481 73.868ZM183.312 68.72C183.208 68.72 183.12 68.688 183.048 68.624C182.984 68.552 182.952 68.464 182.952 68.36C182.952 68.256 182.984 68.172 183.048 68.108C183.12 68.036 183.208 68 183.312 68H184.188C184.26 68 184.296 67.964 184.296 67.892V66.176C184.296 66.048 184.34 65.94 184.428 65.852C184.516 65.764 184.624 65.72 184.752 65.72C184.88 65.72 184.988 65.764 185.076 65.852C185.164 65.94 185.208 66.048 185.208 66.176V67.892C185.208 67.964 185.244 68 185.316 68H187.116C187.22 68 187.304 68.036 187.368 68.108C187.44 68.172 187.476 68.256 187.476 68.36C187.476 68.464 187.44 68.552 187.368 68.624C187.304 68.688 187.22 68.72 187.116 68.72H185.316C185.244 68.72 185.208 68.756 185.208 68.828V71.996C185.208 72.572 185.284 72.952 185.436 73.136C185.588 73.312 185.88 73.4 186.312 73.4C186.568 73.4 186.78 73.38 186.948 73.34C187.036 73.324 187.116 73.344 187.188 73.4C187.268 73.448 187.308 73.516 187.308 73.604C187.308 73.716 187.272 73.816 187.2 73.904C187.136 73.992 187.052 74.044 186.948 74.06C186.74 74.1 186.476 74.12 186.156 74.12C185.452 74.12 184.964 73.976 184.692 73.688C184.428 73.392 184.296 72.856 184.296 72.08V68.828C184.296 68.756 184.26 68.72 184.188 68.72H183.312Z" fill="#6251A3"/>
<defs>
<clipPath id="clip0_2304_9976">
<rect width="28" height="32" fill="white" transform="translate(127 18)"/>
</clipPath>
</defs>
</svg>
