<svg width="335" height="27" viewBox="0 0 335 27" fill="none" xmlns="http://www.w3.org/2000/svg">
<rect width="335" height="27" fill="#F5F5F5"/>
<g clip-path="url(#clip0_0_1)">
<rect width="375" height="845" transform="translate(-20 -199)" fill="white"/>
<path d="M2.99414 14.752H117.005" stroke="#5AD192" stroke-width="5" stroke-linecap="round"/>
<path d="M3 14.5049H332.002" stroke="#D8D0EE" stroke-width="5" stroke-linecap="round"/>
<circle cx="12.5" cy="14.5" r="12.5" fill="#6251A3"/>
<circle cx="116.5" cy="12.5" r="12.5" fill="#6251A3"/>
<circle cx="322.5" cy="14.5" r="12.5" fill="#6251A3"/>
<path d="M9.414 13.571C9.25533 13.6957 9.08533 13.7127 8.904 13.622C8.734 13.5313 8.649 13.384 8.649 13.18V11.939C8.649 11.293 8.90967 10.783 9.431 10.409L11.148 9.151C11.658 8.777 12.2417 8.59 12.899 8.59H13.97C14.2307 8.59 14.4573 8.68633 14.65 8.879C14.8427 9.07167 14.939 9.29833 14.939 9.559V20.031C14.939 20.2917 14.8427 20.5183 14.65 20.711C14.4573 20.9037 14.2307 21 13.97 21H12.899C12.6383 21 12.4117 20.9037 12.219 20.711C12.0263 20.5183 11.93 20.2917 11.93 20.031V11.769H11.913H11.896L9.414 13.571Z" fill="white"/>
<path d="M113.295 19C113.034 19 112.808 18.9037 112.615 18.711C112.422 18.5183 112.326 18.2917 112.326 18.031V17.64C112.326 17.0053 112.581 16.4897 113.091 16.093C114.995 14.597 116.253 13.458 116.865 12.676C117.488 11.894 117.8 11.129 117.8 10.381C117.8 9.33833 117.222 8.817 116.066 8.817C115.363 8.817 114.502 9.00967 113.482 9.395C113.267 9.47433 113.063 9.45167 112.87 9.327C112.677 9.20233 112.581 9.02667 112.581 8.8V8.086C112.581 7.79133 112.666 7.53067 112.836 7.304C113.006 7.066 113.233 6.90733 113.516 6.828C114.547 6.556 115.539 6.42 116.491 6.42C117.862 6.42 118.916 6.74867 119.653 7.406C120.401 8.052 120.775 8.953 120.775 10.109C120.775 11.1063 120.458 12.0583 119.823 12.965C119.2 13.8603 117.976 15.0787 116.151 16.62C116.14 16.6313 116.134 16.6427 116.134 16.654C116.134 16.6653 116.14 16.671 116.151 16.671H119.874C120.135 16.671 120.356 16.7673 120.537 16.96C120.73 17.1527 120.826 17.3793 120.826 17.64V18.031C120.826 18.2917 120.73 18.5183 120.537 18.711C120.356 18.9037 120.135 19 119.874 19H113.295Z" fill="white"/>
<circle cx="220.5" cy="12.5" r="12.5" fill="#6251A3"/>
<path d="M217.244 8.919C216.983 8.919 216.757 8.82267 216.564 8.63C216.371 8.43733 216.275 8.21067 216.275 7.95V7.559C216.275 7.29833 216.371 7.07167 216.564 6.879C216.757 6.68633 216.983 6.59 217.244 6.59H223.585C223.846 6.59 224.072 6.68633 224.265 6.879C224.458 7.07167 224.554 7.29833 224.554 7.559V7.95C224.554 8.596 224.305 9.123 223.806 9.531L221.239 11.656V11.673C221.239 11.6843 221.245 11.69 221.256 11.69H221.46C222.446 11.69 223.234 11.996 223.823 12.608C224.424 13.22 224.724 14.0473 224.724 15.09C224.724 16.4047 224.322 17.4133 223.517 18.116C222.712 18.8187 221.556 19.17 220.049 19.17C219.142 19.17 218.224 19.0623 217.295 18.847C217.023 18.779 216.796 18.6317 216.615 18.405C216.445 18.167 216.36 17.9007 216.36 17.606V17.028C216.36 16.8013 216.451 16.6257 216.632 16.501C216.825 16.365 217.034 16.331 217.261 16.399C218.236 16.7163 219.086 16.875 219.811 16.875C220.468 16.875 220.978 16.722 221.341 16.416C221.704 16.11 221.885 15.685 221.885 15.141C221.885 14.5857 221.675 14.1947 221.256 13.968C220.837 13.7413 220.055 13.6223 218.91 13.611C218.649 13.611 218.423 13.5203 218.23 13.339C218.037 13.1463 217.941 12.9197 217.941 12.659V12.625C217.941 11.9903 218.185 11.4633 218.672 11.044L221.086 8.953V8.936C221.086 8.92467 221.08 8.919 221.069 8.919H217.244Z" fill="white"/>
<path d="M319.754 16.325V16.342C319.754 16.3533 319.76 16.359 319.771 16.359H322.576C322.678 16.359 322.729 16.3137 322.729 16.223V12.109C322.729 12.0977 322.723 12.092 322.712 12.092C322.689 12.092 322.678 12.0977 322.678 12.109L319.754 16.325ZM318.156 18.62C317.895 18.62 317.669 18.5237 317.476 18.331C317.295 18.1383 317.204 17.9117 317.204 17.651V17.328C317.204 16.6933 317.391 16.1097 317.765 15.577L322.168 9.372C322.542 8.85067 323.046 8.59 323.681 8.59H324.531C324.792 8.59 325.013 8.68633 325.194 8.879C325.387 9.07167 325.483 9.29833 325.483 9.559V16.223C325.483 16.3137 325.534 16.359 325.636 16.359H326.316C326.577 16.359 326.803 16.4553 326.996 16.648C327.189 16.8407 327.285 17.0673 327.285 17.328V17.651C327.285 17.9117 327.189 18.1383 326.996 18.331C326.803 18.5237 326.577 18.62 326.316 18.62H325.636C325.534 18.62 325.483 18.671 325.483 18.773V20.031C325.483 20.2917 325.387 20.5183 325.194 20.711C325.013 20.9037 324.792 21 324.531 21H323.681C323.42 21 323.194 20.9037 323.001 20.711C322.82 20.5183 322.729 20.2917 322.729 20.031V18.773C322.729 18.671 322.678 18.62 322.576 18.62H318.156Z" fill="white"/>
</g>
<defs>
<clipPath id="clip0_0_1">
<rect width="375" height="845" fill="white" transform="translate(-20 -199)"/>
</clipPath>
</defs>
</svg>
