<svg width="211" height="55" viewBox="0 0 211 55" fill="none" xmlns="http://www.w3.org/2000/svg">
<rect y="7.6665" width="40.6004" height="40.6004" rx="1.52194" fill="#6251A3"/>
<path d="M13.8303 15.1904H7.52344V41.4033H13.8303C14.3349 39.037 14.9745 37.8501 16.9191 36.2883C17.0914 36.1499 17.2812 36.0319 17.4818 35.939C19.9034 34.8175 21.4165 34.8253 23.8926 35.9091C24.1476 36.0208 24.3861 36.1711 24.5957 36.3544C26.3247 37.8664 26.9197 39.0639 27.4295 41.4033H33.7363V15.1904H27.4295V30.3663C21.9329 27.6846 18.9523 27.7528 13.8303 30.3663V15.1904Z" fill="#5AD192"/>
<path d="M61.346 35.6582L56.6095 13.3574H63.9116L67.3455 31.5928L70.3453 18.3307C71.2137 14.4231 73.0688 12.7653 75.9107 12.7653C78.7525 12.7653 80.6077 14.4231 81.476 18.3307L84.4758 31.5928L87.9097 13.3574H95.2118L90.4753 35.6582C89.8043 38.8554 87.6729 40.6315 84.7915 40.6315C82.1865 40.6315 79.8577 38.8948 79.1867 35.974L75.9107 21.5672L72.6346 35.974C71.9636 38.8948 69.6348 40.6315 67.0298 40.6315C64.1484 40.6315 62.017 38.8554 61.346 35.6582ZM100.348 40L107.216 17.5807C108.203 14.3047 110.965 12.7653 113.728 12.7653C116.491 12.7653 119.254 14.3047 120.241 17.5807L127.109 40H119.649L118.425 35.5004H109.071L107.808 40H100.348ZM113.452 19.7121L110.887 28.9877H116.61L114.084 19.7121C114.005 19.4358 113.926 19.3174 113.768 19.3174C113.61 19.3174 113.531 19.4358 113.452 19.7121ZM144.082 13.3574V33.29H155.844V40H143.095C138.595 40 136.78 37.6318 136.78 33.8821V13.3574H144.082Z" fill="#6251A3"/>
<path d="M203.161 40.4736C200.832 40.4736 198.898 38.5396 198.898 36.2108C198.898 33.8821 200.832 31.948 203.161 31.948C205.489 31.948 207.424 33.8821 207.424 36.2108C207.424 38.5396 205.489 40.4736 203.161 40.4736Z" fill="#5AD192"/>
<path d="M174.1 19.4936C172.719 19.9091 172.007 20.2784 170.822 21.1326L164.266 17.3863L165.067 16.5852C165.933 15.719 166.913 14.9673 168.014 14.4305C169.443 13.7337 170.648 13.2802 172.101 12.9077C173.418 12.5702 174.788 12.468 176.142 12.5892C178.291 12.7815 179.909 13.1868 181.751 14.0364C183.076 14.6475 184.293 15.4879 185.309 16.5351C186.327 17.5846 187.04 18.6098 187.914 20.196C188.703 21.9721 189.02 22.9949 189.319 24.8789C189.382 27.4267 189.246 28.8154 188.617 31.2007L181.826 27.2203V26.1043C181.826 25.4446 181.795 24.7796 181.62 24.1437C181.464 23.5805 181.255 23.1326 180.89 22.5374C180.093 21.1595 179.508 20.8671 178.314 20.196C176.708 19.5087 175.786 19.3392 174.1 19.4936Z" fill="#6251A3" stroke="#6251A3" stroke-width="0.468287"/>
<path d="M176.451 33.3082C177.831 32.8927 178.544 32.5233 179.729 31.6692L186.285 35.4155L185.484 36.2166C184.618 37.0828 183.637 37.8344 182.536 38.3713C181.107 39.0681 179.903 39.5215 178.449 39.8941C177.132 40.2315 175.763 40.3337 174.408 40.2125C172.26 40.0202 170.642 39.615 168.8 38.7654C167.475 38.1542 166.258 37.3139 165.242 36.2667C164.224 35.2172 163.511 34.1919 162.637 32.6058C161.848 30.8296 161.531 29.8069 161.232 27.9229C161.169 25.3751 161.305 23.9864 161.934 21.601L168.724 25.5815V26.6975C168.724 27.3572 168.755 28.0221 168.931 28.658C169.086 29.2213 169.296 29.6692 169.661 30.2643C170.458 31.6422 171.043 31.9347 172.237 32.6058C173.843 33.2931 174.764 33.4626 176.451 33.3082Z" fill="#6251A3" stroke="#6251A3" stroke-width="0.468287"/>
</svg>
